<?xml version="1.0" encoding="utf-8"?>
<!-- Generator: Adobe Illustrator 21.0.0, SVG Export Plug-In . SVG Version: 6.00 Build 0)  -->
<svg version="1.1" id="Layer_1" xmlns="http://www.w3.org/2000/svg" xmlns:xlink="http://www.w3.org/1999/xlink" x="0px" y="0px"
	 viewBox="0 0 456 215" style="enable-background:new 0 0 456 215;" xml:space="preserve">
<style type="text/css">
	.st0{fill:#2B2A29;}
	.st1{fill:#017663;}
	.st2{fill:#1FEBE0;}
	.st3{fill:#007B67;}
	.st4{fill:#007E6B;}
	.st5{fill:#01806D;}
	.st6{fill:#019682;}
	.st7{fill:#00A795;}
	.st8{fill:#01A38E;}
	.st9{fill:#03BDAF;}
	.st10{fill:#06C9BB;}
	.st11{fill:#04C4B5;}
	.st12{fill:#02B4A4;}
	.st13{fill:#01AC9A;}
	.st14{fill:#03C6B6;}
	.st15{fill:#06CEC1;}
	.st16{fill:#04C3B3;}
	.st17{fill:#08D4C9;}
	.st18{fill:#009079;}
	.st19{fill:#FCFCFC;}
	.st20{fill:#FFFFFF;}
</style>
<polygon class="st0" points="107,168.4 114.4,172.6 121.7,176.9 121.7,185.4 121.7,194 114.4,198.2 107,202.5 99.6,198.2 92.2,194 
	92.2,185.4 92.2,176.9 99.6,172.6 "/>
<polygon class="st1" points="107,169.1 114.1,173.2 121.1,177.3 121.1,185.4 121.1,193.6 114.1,197.6 107,201.7 99.9,197.6 
	92.8,193.6 92.8,185.4 92.8,177.3 99.9,173.2 "/>
<polygon class="st2" points="107,168.4 107,169.1 92.8,177.3 92.8,193.6 92.2,194 92.2,176.9 "/>
<polygon class="st0" points="145.8,147.7 153.1,152 160.5,156.2 160.5,164.8 160.5,173.3 153.1,177.5 145.8,181.8 138.4,177.5 
	131,173.3 131,164.8 131,156.2 138.4,152 "/>
<polygon class="st1" points="145.8,148.5 152.8,152.5 159.9,156.6 159.9,164.8 159.9,172.9 152.8,177 145.8,181.1 138.7,177 
	131.6,172.9 131.6,164.8 131.6,156.6 138.7,152.5 "/>
<polygon class="st2" points="145.8,147.7 145.8,148.5 131.6,156.6 131.6,172.9 131,173.3 131,156.2 "/>
<polygon class="st0" points="181.6,128.9 189,133.2 196.4,137.5 196.4,145.9 196.4,154.5 189,158.7 181.6,162.9 174.2,158.7 
	166.9,154.5 166.9,145.9 166.9,137.5 174.2,133.2 "/>
<polygon class="st3" points="181.6,129.6 188.7,133.7 195.8,137.8 195.8,145.9 195.8,154.1 188.7,158.2 181.6,162.2 174.5,158.2 
	167.5,154.1 167.5,145.9 167.5,137.8 174.5,133.7 "/>
<polygon class="st2" points="181.6,128.9 181.6,129.6 167.5,137.8 167.5,154.1 166.9,154.5 166.9,137.5 "/>
<polygon class="st0" points="30.8,128.9 38.2,133.2 45.6,137.5 45.6,145.9 45.6,154.5 38.2,158.7 30.8,162.9 23.4,158.7 16.1,154.5 
	16.1,145.9 16.1,137.5 23.4,133.2 "/>
<polygon class="st4" points="30.8,129.6 37.8,133.7 44.9,137.8 44.9,145.9 44.9,154.1 37.8,158.2 30.8,162.2 23.7,158.2 16.7,154.1 
	16.7,145.9 16.7,137.8 23.7,133.7 "/>
<polygon class="st2" points="30.8,128.9 30.8,129.6 16.7,137.8 16.7,154.1 16.1,154.5 16.1,137.5 "/>
<polygon class="st0" points="69.5,147.9 76.9,152.1 84.3,156.4 84.3,165 84.3,173.4 76.9,177.7 69.5,182 62.1,177.7 54.8,173.4 
	54.8,165 54.8,156.4 62.1,152.1 "/>
<polygon class="st1" points="69.5,148.7 76.6,152.7 83.7,156.8 83.7,165 83.7,173.1 76.6,177.1 69.5,181.2 62.4,177.1 55.4,173.1 
	55.4,165 55.4,156.8 62.4,152.7 "/>
<polygon class="st2" points="69.5,147.9 69.5,148.7 55.4,156.8 55.4,173.1 54.8,173.4 54.8,156.4 "/>
<polygon class="st0" points="107.4,126 113.7,129.7 120.2,133.4 120.2,140.8 120.2,148.3 113.7,152 107.4,155.7 100.9,152 
	94.5,148.3 94.5,140.8 94.5,133.4 100.9,129.7 "/>
<polygon class="st5" points="107.4,126.6 113.5,130.2 119.6,133.7 119.6,140.8 119.6,147.9 113.5,151.5 107.4,155 101.2,151.5 
	95,147.9 95,140.8 95,133.7 101.2,130.2 "/>
<polygon class="st2" points="107.4,126 107.4,126.6 95,133.7 95,147.9 94.5,148.3 94.5,133.4 "/>
<polygon class="st0" points="146.1,104.9 152.2,108.4 158.3,112 158.3,119.1 158.3,126.1 152.2,129.6 146.1,133.2 139.9,129.6 
	133.8,126.1 133.8,119.1 133.8,112 139.9,108.4 "/>
<polygon class="st6" points="146.1,105.5 151.9,108.9 157.8,112.3 157.8,119.1 157.8,125.8 151.9,129.1 146.1,132.5 140.2,129.1 
	134.3,125.8 134.3,119.1 134.3,112.3 140.2,108.9 "/>
<polygon class="st2" points="146.1,104.9 146.1,105.5 134.3,112.3 134.3,125.8 133.8,126.1 133.8,112 "/>
<polygon class="st0" points="182,89 188.2,92.5 194.3,96 194.3,103.1 194.3,110.2 188.2,113.7 182,117.3 175.9,113.7 169.8,110.2 
	169.8,103.1 169.8,96 175.9,92.5 "/>
<polygon class="st7" points="182,89.6 187.9,92.9 193.8,96.3 193.8,103.1 193.8,109.9 187.9,113.3 182,116.6 176.2,113.3 
	170.4,109.9 170.4,103.1 170.4,96.3 176.2,92.9 "/>
<polygon class="st2" points="182,89 182,89.6 170.4,96.3 170.4,109.9 169.8,110.2 169.8,96 "/>
<polygon class="st2" points="31.7,89 31.7,89.6 20,96.3 20,109.9 19.5,110.2 19.5,96 "/>
<polygon class="st0" points="30.8,89.2 37.4,93 44,96.8 44,104.4 44,112 37.4,115.8 30.8,119.5 24.2,115.8 17.7,112 17.7,104.4 
	17.7,96.8 24.2,93 "/>
<polygon class="st8" points="30.8,89.9 37.1,93.5 43.4,97.1 43.4,104.4 43.4,111.6 37.1,115.3 30.8,118.9 24.5,115.3 18.2,111.6 
	18.2,104.4 18.2,97.1 24.5,93.5 "/>
<polygon class="st2" points="30.8,89.2 30.8,89.9 18.2,97.1 18.2,111.6 17.7,112 17.7,96.8 "/>
<polygon class="st0" points="30.8,55.9 36.3,59.1 41.9,62.3 41.9,68.7 41.9,75 36.3,78.3 30.8,81.5 25.3,78.3 19.8,75 19.8,68.7 
	19.8,62.3 25.3,59.1 "/>
<polygon class="st9" points="30.8,56.5 36.1,59.5 41.4,62.5 41.4,68.7 41.4,74.8 36.1,77.9 30.8,80.9 25.5,77.9 20.3,74.8 
	20.3,68.7 20.3,62.5 25.5,59.5 "/>
<polygon class="st2" points="30.8,55.9 30.8,56.5 20.3,62.5 20.3,74.8 19.8,75 19.8,62.3 "/>
<polygon class="st0" points="181.6,55.9 187.1,59.1 192.7,62.3 192.7,68.7 192.7,75 187.1,78.3 181.6,81.5 176.1,78.3 170.6,75 
	170.6,68.7 170.6,62.3 176.1,59.1 "/>
<polygon class="st10" points="181.6,56.5 186.9,59.5 192.2,62.5 192.2,68.7 192.2,74.8 186.9,77.9 181.6,80.9 176.3,77.9 
	171.1,74.8 171.1,68.7 171.1,62.5 176.3,59.5 "/>
<polygon class="st2" points="181.6,55.9 181.6,56.5 171.1,62.5 171.1,74.8 170.6,75 170.6,62.3 "/>
<polygon class="st0" points="145.9,66.1 151,69 156.1,71.9 156.1,77.8 156.1,83.7 151,86.6 145.9,89.5 140.8,86.6 135.8,83.7 
	135.8,77.8 135.8,71.9 140.8,69 "/>
<polygon class="st11" points="145.9,66.6 150.8,69.4 155.6,72.2 155.6,77.8 155.6,83.4 150.8,86.2 145.9,89 141.1,86.2 136.2,83.4 
	136.2,77.8 136.2,72.2 141.1,69.4 "/>
<polygon class="st2" points="145.9,66.1 145.9,66.6 136.2,72.2 136.2,83.4 135.8,83.7 135.8,71.9 "/>
<polygon class="st0" points="69.1,66.1 74.1,69 79.2,71.9 79.2,77.8 79.2,83.7 74.1,86.6 69.1,89.5 64,86.6 58.9,83.7 58.9,77.8 
	58.9,71.9 64,69 "/>
<polygon class="st12" points="69.1,66.6 73.9,69.4 78.8,72.2 78.8,77.8 78.8,83.4 73.9,86.2 69.1,89 64.2,86.2 59.4,83.4 59.4,77.8 
	59.4,72.2 64.2,69.4 "/>
<polygon class="st2" points="69.1,66.1 69.1,66.6 59.4,72.2 59.4,83.4 58.9,83.7 58.9,71.9 "/>
<polygon class="st0" points="107.4,83.3 113.3,86.8 119.4,90.3 119.4,97.2 119.4,104.1 113.3,107.6 107.4,111.2 101.3,107.6 
	95.3,104.1 95.3,97.2 95.3,90.3 101.3,86.8 "/>
<polygon class="st13" points="107.4,83.9 113.1,87.3 118.8,90.6 118.8,97.2 118.8,103.8 113.1,107.2 107.4,110.5 101.6,107.2 
	95.8,103.8 95.8,97.2 95.8,90.6 101.6,87.3 "/>
<polygon class="st2" points="107.4,83.3 107.4,83.9 95.8,90.6 95.8,103.8 95.3,104.1 95.3,90.3 "/>
<polygon class="st0" points="107.4,44.4 112.8,47.6 118.4,50.8 118.4,57.1 118.4,63.6 112.8,66.7 107.4,70 101.8,66.7 96.3,63.6 
	96.3,57.1 96.3,50.8 101.8,47.6 "/>
<polygon class="st14" points="107.4,44.9 112.6,48 117.9,51.1 117.9,57.1 117.9,63.3 112.6,66.3 107.4,69.4 102,66.3 96.8,63.3 
	96.8,57.1 96.8,51.1 102,48 "/>
<polygon class="st2" points="107.4,44.4 107.4,44.9 96.8,51.1 96.8,63.3 96.3,63.6 96.3,50.8 "/>
<polygon class="st0" points="107.4,8.9 112.1,11.6 116.9,14.4 116.9,19.9 116.9,25.4 112.1,28.3 107.4,31 102.5,28.3 97.8,25.4 
	97.8,19.9 97.8,14.4 102.5,11.6 "/>
<polygon class="st15" points="107.4,9.4 112,12 116.5,14.6 116.5,19.9 116.5,25.3 112,27.9 107.4,30.5 102.8,27.9 98.2,25.3 
	98.2,19.9 98.2,14.6 102.8,12 "/>
<polygon class="st2" points="107.4,8.9 107.4,9.4 98.2,14.6 98.2,25.3 97.8,25.4 97.8,14.4 "/>
<polygon class="st0" points="69.4,27.7 74.1,30.4 79,33.3 79,38.7 79,44.3 74.1,47 69.4,49.9 64.5,47 59.8,44.3 59.8,38.7 
	59.8,33.3 64.5,30.4 "/>
<polygon class="st16" points="69.4,28.2 74,30.8 78.5,33.5 78.5,38.7 78.5,44.1 74,46.7 69.4,49.4 64.8,46.7 60.2,44.1 60.2,38.7 
	60.2,33.5 64.8,30.8 "/>
<polygon class="st2" points="69.4,27.7 69.4,28.2 60.2,33.5 60.2,44.1 59.8,44.3 59.8,33.3 "/>
<polygon class="st0" points="145.8,28.7 150.5,31.4 155.4,34.1 155.4,39.7 155.4,45.2 150.5,47.9 145.8,50.8 141,47.9 136.2,45.2 
	136.2,39.7 136.2,34.1 141,31.4 "/>
<polygon class="st17" points="145.8,29.1 150.4,31.7 154.9,34.4 154.9,39.7 154.9,44.9 150.4,47.6 145.8,50.3 141.2,47.6 
	136.6,44.9 136.6,39.7 136.6,34.4 141.2,31.7 "/>
<polygon class="st2" points="145.8,28.7 145.8,29.1 136.6,34.4 136.6,44.9 136.2,45.2 136.2,34.1 "/>
<polygon class="st0" points="69.1,104.9 75.2,108.4 81.3,112 81.3,119.1 81.3,126.1 75.2,129.6 69.1,133.2 62.9,129.6 56.8,126.1 
	56.8,119.1 56.8,112 62.9,108.4 "/>
<polygon class="st18" points="69.1,105.5 74.9,108.9 80.8,112.3 80.8,119.1 80.8,125.8 74.9,129.1 69.1,132.5 63.2,129.1 
	57.4,125.8 57.4,119.1 57.4,112.3 63.2,108.9 "/>
<polygon class="st2" points="69.1,104.9 69.1,105.5 57.4,112.3 57.4,125.8 56.8,126.1 56.8,112 "/>
<g>
	<path class="st19" d="M212.6,90.1l9-21.4h3.1l9,21.4h-4.4l-2.4-5.6l0,0h-7.7l0,0l-2.4,5.6H212.6z M220.6,80.8L220.6,80.8h5l0,0
		l-2.5-6.6l0,0L220.6,80.8z M223.2,66.9L223.2,66.9L223.2,66.9z M230.4,90.1L230.4,90.1L230.4,90.1z M212.4,68.2L212.4,68.2
		L212.4,68.2z"/>
</g>
<path id="_x31_" class="st19" d="M249.8,75.6v-6.9h3.9v21.4h-3.6v-2c-1.1,1.6-2.8,2.5-5.1,2.5c-2.2,0-4.1-0.8-5.8-2.4
	c-1.6-1.6-2.4-3.7-2.4-6.1s0.8-4.4,2.4-6c1.6-1.7,3.5-2.5,5.8-2.5C247,73.6,248.7,74.2,249.8,75.6z M240.6,82c0,1.5,0.5,2.7,1.5,3.7
	c1,0.9,2.1,1.4,3.3,1.4c1.4,0,2.5-0.5,3.3-1.5c0.9-1,1.3-2.2,1.3-3.4c0-1.4-0.5-2.6-1.4-3.5c-0.9-1-2.1-1.5-3.5-1.5
	c-1.3,0-2.4,0.5-3.3,1.6C241.1,79.7,240.6,80.8,240.6,82z"/>
<g>
	<path id="_x32_" class="st19" d="M258.5,90.1V68.7h3.9v21.4H258.5z M260.4,66.9L260.4,66.9L260.4,66.9z M260.4,90.1L260.4,90.1
		L260.4,90.1z"/>
</g>
<g>
	<path id="_x33_" class="st19" d="M267.5,74.1h3.9v16h-3.9V74.1z M267.5,68.8h3.9v3.5h-3.9V68.8z M269.4,90.1L269.4,90.1L269.4,90.1
		z"/>
</g>
<g>
	<path id="_x34_" class="st19" d="M275.2,74.1h4.4l3.7,10.2l0,0l3.8-10.2h4.4l-9.1,21.4h-4.1l2.9-6.9l0,0L275.2,74.1z M283.4,71.7
		L283.4,71.7L283.4,71.7z M275,73.6L275,73.6L275,73.6z"/>
</g>
<g>
	<path id="_x35_" class="st19" d="M311.5,74.1v16H308v-2c-0.5,0.6-1.2,1.2-2.3,1.7s-2.2,0.7-3.3,0.7c-2.2,0-4-0.8-5.5-2.4
		s-2.2-3.6-2.2-6s0.7-4.5,2.2-6.1s3.4-2.5,5.7-2.5c2.3,0,4.1,0.9,5.4,2.7V74L311.5,74.1L311.5,74.1z M303.1,77.1
		c-1.2,0-2.3,0.5-3.3,1.4c-0.9,0.9-1.4,2.2-1.4,3.6s0.5,2.5,1.4,3.5s2,1.4,3.3,1.4c1.4,0,2.5-0.5,3.4-1.4c0.9-1,1.3-2.1,1.3-3.6
		c0-1.4-0.4-2.6-1.3-3.5C305.7,77.6,304.6,77.1,303.1,77.1z M303.3,71.7L303.3,71.7L303.3,71.7z M308.8,90.1L308.8,90.1L308.8,90.1z
		"/>
</g>
<polygon id="_x36_" class="st19" points="331.1,84.9 331.1,84.9 336.8,68.7 341,68.7 332.6,90.1 329.4,90.1 321.1,68.7 325.3,68.7 
	"/>
<g>
	<path id="_x37_" class="st19" d="M360.9,74.1v16h-3.6v-2c-0.4,0.6-1.2,1.2-2.3,1.7s-2.2,0.7-3.3,0.7c-2.2,0-4-0.8-5.5-2.4
		s-2.2-3.6-2.2-6s0.7-4.5,2.2-6.1s3.4-2.5,5.7-2.5c2.2,0,4.1,0.9,5.4,2.7V74L360.9,74.1L360.9,74.1z M352.5,77.1
		c-1.2,0-2.4,0.5-3.3,1.4c-0.9,0.9-1.4,2.2-1.4,3.6s0.5,2.5,1.4,3.5s2,1.4,3.3,1.4c1.4,0,2.5-0.5,3.4-1.4c0.9-1,1.3-2.1,1.3-3.6
		c0-1.4-0.4-2.6-1.2-3.5C355.1,77.6,353.9,77.1,352.5,77.1z M352.7,71.7L352.7,71.7L352.7,71.7z M358.2,90.1L358.2,90.1L358.2,90.1z
		"/>
</g>
<g>
	<path id="_x38_" class="st19" d="M364.9,90.1v-3.5l7.1-9l0,0h-6.3v-3.5h10.9v3.5l-7.1,9l0,0h7.6v3.5H364.9z M371.7,71.7L371.7,71.7
		L371.7,71.7z M364.3,73.6L364.3,73.6L364.3,73.6z"/>
</g>
<g>
	<path id="_x39_" class="st19" d="M381.2,74.1h3.8v16h-3.8V74.1z M381.2,68.8h3.8v3.5h-3.8V68.8z M383.1,90.1L383.1,90.1L383.1,90.1
		z"/>
</g>
<g>
	<path id="_x31_0" class="st19" d="M390.5,74.1h3.6v1.6c0.8-1.4,1.8-2.2,3.3-2.2h0.4v3.7c-1.2,0.1-2,0.4-2.6,1s-0.8,1.4-0.8,2.6V90
		h-3.9V74.1z M394.7,71.7L394.7,71.7L394.7,71.7z M392.4,90.1L392.4,90.1L392.4,90.1z"/>
</g>
<g>
	<path id="_x31_1" class="st19" d="M401.6,90.1V68.7h3.8v21.4H401.6z M403.5,66.9L403.5,66.9L403.5,66.9z M403.5,90.1L403.5,90.1
		L403.5,90.1z"/>
</g>
<g>
	<path id="_x31_2" class="st19" d="M410.6,74.1h3.8v16h-3.8V74.1z M410.6,68.8h3.8v3.5h-3.8V68.8z M412.5,90.1L412.5,90.1
		L412.5,90.1z"/>
</g>
<g>
	<path id="_x31_3" class="st19" d="M419.2,91h4.4c0.9,1.2,2.2,1.9,3.8,1.9c1.4,0,2.5-0.5,3.4-1.6c0.9-1,1.4-2.2,1.4-3.4
		c-1.3,1.8-3.1,2.6-5.3,2.6c-2,0-3.8-0.8-5.5-2.4c-1.6-1.6-2.5-3.7-2.5-6.2c0-2.3,0.8-4.3,2.4-5.9c1.6-1.6,3.5-2.5,5.7-2.5
		c2.3,0,4,0.9,5.1,2.6v-2h4V87c0,2.6-0.7,4.8-2.3,6.7c-1.5,1.8-3.7,2.7-6.5,2.7C423.5,96.4,420.8,94.6,419.2,91z M422.8,82
		c0,1.3,0.4,2.4,1.3,3.5c0.9,1,2,1.6,3.4,1.6c1.1,0,2.1-0.5,3.1-1.4c0.9-0.9,1.4-2.1,1.4-3.5c0-1.5-0.4-2.7-1.3-3.7
		c-0.9-1-2-1.4-3.3-1.4c-1.3,0-2.4,0.5-3.2,1.4C423.2,79.5,422.8,80.6,422.8,82z M427.2,71.7L427.2,71.7L427.2,71.7z"/>
</g>
<g>
	<path id="_x31_4" class="st19" d="M440.7,74.1h3.8v16h-3.8V74.1z M440.7,68.8h3.8v3.5h-3.8V68.8z M442.6,90.1L442.6,90.1
		L442.6,90.1z"/>
</g>
<rect x="211.4" y="52.8" class="st20" width="233.9" height="4"/>
<g>
	<path class="st19" d="M215,154.5l9-21.4h2.4l9,21.4H233l-3.1-7.3l0,0h-9.7l0,0l-3.1,7.3H215z M221.1,145.3L221.1,145.3h8.1l0,0
		l-4-9.8l0,0L221.1,145.3z M225.1,131.4L225.1,131.4L225.1,131.4z M233.9,154.5L233.9,154.5L233.9,154.5z M214.6,132.7L214.6,132.7
		L214.6,132.7z"/>
</g>
<g>
	<path id="_x31__1_" class="st19" d="M251.2,154.9h2.1c0.4,1.2,1.1,2.2,2.2,2.9s2.3,1.1,3.7,1.1c1.6,0,3-0.5,4.1-1.5
		s1.6-2.5,1.6-4.4v-1.5c-0.6,1-1.4,1.8-2.5,2.4s-2.4,0.9-3.8,0.9c-2.2,0-4.2-0.8-5.8-2.4c-1.6-1.6-2.4-3.5-2.4-5.8s0.8-4.3,2.4-5.9
		c1.6-1.6,3.5-2.5,5.8-2.5c2.7,0,4.8,1.1,6.3,3.3v-2.9h2v13.5c0,3.2-0.8,5.4-2.3,6.6c-1.6,1.3-3.4,1.9-5.4,1.9s-3.8-0.6-5.2-1.7
		C252.4,157.9,251.5,156.6,251.2,154.9z M252.5,146.7c0,1.8,0.6,3.3,1.8,4.5c1.2,1.2,2.7,1.8,4.4,1.8c1.8,0,3.2-0.6,4.5-1.8
		c1.2-1.2,1.9-2.7,1.9-4.5c0-2-0.6-3.5-1.9-4.7c-1.2-1.2-2.7-1.8-4.5-1.8c-1.6,0-3.1,0.6-4.3,1.8
		C253.1,143.2,252.5,144.8,252.5,146.7z M258.8,136.1L258.8,136.1L258.8,136.1z"/>
</g>
<g>
	<path id="_x32__1_" class="st19" d="M285.4,147.3L285.4,147.3c0,1.4,0.6,2.7,1.8,3.9c1.2,1.2,2.7,1.8,4.4,1.8c0.9,0,1.9-0.3,3-0.9
		c1.1-0.6,2-1.6,2.5-2.9h2.2c-0.7,1.8-1.8,3.2-3.2,4.2c-1.4,1-2.9,1.4-4.5,1.4c-2.4,0-4.3-0.8-5.9-2.5c-1.6-1.7-2.4-3.6-2.4-5.8
		c0-2.2,0.8-4.2,2.3-5.9c1.5-1.6,3.5-2.5,6-2.5c2.2,0,4.1,0.8,5.7,2.4s2.4,3.6,2.4,6v0.6h-14.3V147.3L285.4,147.3z M285.5,145.5
		h12.3l0,0c-0.3-1.7-1-3-2.2-4c-1.2-1-2.5-1.4-3.9-1.4c-1.6,0-3.1,0.5-4.3,1.6C286.2,142.9,285.5,144.1,285.5,145.5z M291.8,136.1
		L291.8,136.1L291.8,136.1z M293.3,154.5L293.3,154.5L293.3,154.5z"/>
</g>
<g>
	<path id="_x33__1_" class="st19" d="M316.3,154.5v-15.8h2v2.1c1.2-1.6,2.8-2.5,4.9-2.5c2,0,3.6,0.6,4.9,1.9
		c1.3,1.2,1.9,3.1,1.9,5.7v8.6h-2v-8.6c0-1.9-0.5-3.3-1.3-4.3c-0.9-1-2.1-1.5-3.5-1.5c-1.4,0-2.5,0.5-3.5,1.4
		c-0.9,0.9-1.4,2.4-1.4,4.4v8.6L316.3,154.5L316.3,154.5z M323.2,136.1L323.2,136.1L323.2,136.1z M323.2,154.5L323.2,154.5
		L323.2,154.5z"/>
</g>
<g>
	<path id="_x34__1_" class="st19" d="M349.3,133.1h2v5.6h3.9v1.8h-3.9v14h-2v-14H346v-1.8h3.3V133.1z M350.4,154.5L350.4,154.5
		L350.4,154.5z"/>
</g>
<g>
	<path id="_x35__1_" class="st19" d="M370.7,154.5v-21.4h2v21.4H370.7z M371.7,130.8L371.7,130.8L371.7,130.8z M371.7,154.5
		L371.7,154.5L371.7,154.5z"/>
</g>
<g>
	<path id="_x36__1_" class="st19" d="M389.9,138.7h2v15.8h-2V138.7z M389.9,133.1h2v3.6h-2V133.1z M390.9,154.5L390.9,154.5
		L390.9,154.5z"/>
</g>
<g>
	<path id="_x37__1_" class="st19" d="M409.1,154.9h2.1c0.4,1.2,1.1,2.2,2.2,2.9c1.1,0.7,2.3,1.1,3.7,1.1c1.6,0,3-0.5,4.1-1.5
		s1.6-2.5,1.6-4.4v-1.5c-0.6,1-1.4,1.8-2.5,2.4s-2.4,0.9-3.8,0.9c-2.2,0-4.2-0.8-5.8-2.4s-2.4-3.5-2.4-5.8s0.8-4.3,2.4-5.9
		c1.6-1.6,3.5-2.5,5.8-2.5c2.7,0,4.8,1.1,6.3,3.3v-2.9h2v13.5c0,3.2-0.8,5.4-2.3,6.6c-1.6,1.3-3.4,1.9-5.4,1.9s-3.8-0.6-5.2-1.7
		C410.3,157.9,409.4,156.6,409.1,154.9z M410.4,146.7c0,1.8,0.6,3.3,1.8,4.5c1.2,1.2,2.7,1.8,4.4,1.8c1.8,0,3.2-0.6,4.5-1.8
		c1.2-1.2,1.9-2.7,1.9-4.5c0-2-0.6-3.5-1.9-4.7c-1.2-1.2-2.7-1.8-4.5-1.8c-1.6,0-3.1,0.6-4.3,1.8C411,143.2,410.4,144.8,410.4,146.7
		z M416.8,136.1L416.8,136.1L416.8,136.1z"/>
</g>
<g>
	<path id="_x38__1_" class="st19" d="M442.1,138.7h2v15.8h-2V138.7z M442.1,133.1h2v3.6h-2V133.1z M443.1,154.5L443.1,154.5
		L443.1,154.5z"/>
</g>
<g>
	<path class="st19" d="M215.2,124.2v-21.4h6.2c3.8,0,6.7,1.1,8.8,3.2c2.1,2.1,3.1,4.6,3.1,7.6c0,2.7-1,5.2-3.1,7.3
		c-2,2.2-5.2,3.3-9.4,3.3H215.2z M217.4,122.3h3.3c4,0,6.7-0.9,8.3-2.7c1.6-1.8,2.3-3.8,2.3-6c0-2.6-0.9-4.6-2.6-6.3
		c-1.7-1.7-4.3-2.6-7.9-2.6h-3.5L217.4,122.3L217.4,122.3z M223,101.1L223,101.1L223,101.1z M213.1,102.5L213.1,102.5L213.1,102.5z"
		/>
</g>
<g>
	<path id="_x31__2_" class="st19" d="M252.4,108.5v15.8h-2v-2.8c-1.6,2.1-3.7,3.1-6.2,3.1c-2.4,0-4.5-0.8-6.1-2.4
		c-1.6-1.6-2.4-3.6-2.4-5.9c0-2.2,0.8-4.2,2.3-5.8c1.6-1.6,3.6-2.4,6.1-2.4c2.7,0,4.7,1,6.2,3.1v-2.7H252.4z M244.2,109.9
		c-1.8,0-3.3,0.6-4.6,1.8c-1.2,1.2-1.9,2.7-1.9,4.6c0,2,0.6,3.6,1.8,4.8c1.2,1.2,2.7,1.8,4.5,1.8c1.8,0,3.3-0.6,4.6-1.9
		c1.2-1.3,1.8-2.8,1.8-4.6s-0.6-3.3-1.8-4.6S246,109.9,244.2,109.9z M244.3,105.8L244.3,105.8L244.3,105.8z M250.8,124.2
		L250.8,124.2L250.8,124.2z"/>
</g>
<polygon id="_x32__2_" class="st19" points="262.3,121.7 262.3,121.7 268,108.5 270.2,108.5 263.4,124.2 261.2,124.2 254.5,108.5 
	256.6,108.5 "/>
<g>
	<path id="_x33__2_" class="st19" d="M272,124.2v-21.4h2v21.4H272z M273.1,100.6L273.1,100.6L273.1,100.6z M273.1,124.2L273.1,124.2
		L273.1,124.2z"/>
</g>
<g>
	<path id="_x34__2_" class="st19" d="M293.8,108.5v15.8h-2v-2.8c-1.6,2.1-3.7,3.1-6.2,3.1s-4.5-0.8-6.1-2.4s-2.4-3.6-2.4-5.9
		c0-2.2,0.8-4.2,2.4-5.8s3.6-2.4,6.1-2.4c2.7,0,4.7,1,6.2,3.1v-2.7H293.8z M285.6,109.9c-1.8,0-3.3,0.6-4.5,1.8
		c-1.2,1.2-1.9,2.7-1.9,4.6c0,2,0.6,3.6,1.8,4.8c1.2,1.2,2.7,1.8,4.5,1.8c1.8,0,3.4-0.6,4.6-1.9c1.2-1.3,1.8-2.8,1.8-4.6
		s-0.6-3.3-1.8-4.6C288.9,110.5,287.4,109.9,285.6,109.9z M285.8,105.8L285.8,105.8L285.8,105.8z M292.2,124.2L292.2,124.2
		L292.2,124.2z"/>
</g>
<g>
	<path id="_x35__2_" class="st19" d="M299.4,102.8h2v5.6h3.8v1.8h-3.8v13.9h-2v-13.9h-3.3v-1.7h3.3V102.8z M300.4,124.2L300.4,124.2
		L300.4,124.2z"/>
</g>
<polygon id="_x36__2_" class="st19" points="313.7,124.2 320.9,113.3 320.9,113.3 314.1,102.8 316.5,102.8 322.2,111.4 322.2,111.4 
	327.8,102.8 330.3,102.8 323.4,113.3 323.4,113.3 330.7,124.2 328.3,124.2 322.2,115.1 322.2,115.1 316.2,124.2 "/>
<g>
	<path id="_x37__2_" class="st19" d="M332.8,108.5h2v15.8h-2V108.5z M332.8,102.8h2v3.6h-2V102.8z M333.8,124.2L333.8,124.2
		L333.8,124.2z"/>
</g>
<g>
	<path id="_x38__2_" class="st19" d="M337,124.2v-1.7l8.8-12.2l0,0h-8.5v-1.8h11v1.8l-8.7,12.2l0,0h9.2v1.8L337,124.2L337,124.2z
		 M342.8,105.8L342.8,105.8L342.8,105.8z M336.7,108.1L336.7,108.1L336.7,108.1z"/>
</g>
<path id="_x39__1_" class="st19" d="M350.8,108.5h2v1.8c0.9-1.5,2.4-2.3,4.3-2.3c2.4,0,4.1,1,5.3,2.9c1-2,2.8-2.9,5.2-2.9
	c2,0,3.5,0.6,4.7,1.8c1.1,1.2,1.7,2.8,1.7,4.8v9.6h-2v-8.9c0-1.8-0.3-3.1-1.1-4.1c-0.7-0.9-1.8-1.4-3.1-1.4c-1.4,0-2.5,0.5-3.2,1.4
	c-0.8,0.9-1.1,2.1-1.1,3.7v9.3h-2V115c0-1.6-0.3-2.8-1-3.8c-0.7-0.9-1.8-1.4-3.2-1.4c-1.5,0-2.6,0.5-3.2,1.5c-0.7,1-1,2.2-1,3.8v9.1
	h-2v-15.7H350.8z"/>
<g>
	<path id="_x31_0_1_" class="st19" d="M393.9,108.5v15.8h-2v-2.8c-1.6,2.1-3.7,3.1-6.2,3.1c-2.4,0-4.5-0.8-6.1-2.4s-2.4-3.6-2.4-5.9
		c0-2.2,0.8-4.2,2.4-5.8c1.6-1.6,3.6-2.4,6.1-2.4c2.7,0,4.7,1,6.2,3.1v-2.7H393.9z M385.7,109.9c-1.8,0-3.3,0.6-4.5,1.8
		c-1.2,1.2-1.9,2.7-1.9,4.6c0,2,0.6,3.6,1.8,4.8c1.2,1.2,2.7,1.8,4.5,1.8c1.8,0,3.4-0.6,4.6-1.9s1.8-2.8,1.8-4.6s-0.6-3.3-1.8-4.6
		C389,110.5,387.4,109.9,385.7,109.9z M385.8,105.8L385.8,105.8L385.8,105.8z M392.2,124.2L392.2,124.2L392.2,124.2z"/>
</g>
<g>
	<path id="_x31_1_1_" class="st19" d="M399.4,102.8h2v5.6h3.8v1.8h-3.8v13.9h-2v-13.9h-3.3v-1.7h3.3V102.8z M400.5,124.2
		L400.5,124.2L400.5,124.2z"/>
</g>
<g>
	<path id="_x31_2_1_" class="st19" d="M407.3,124.2v-21.4h2v21.4H407.3z M408.3,100.6L408.3,100.6L408.3,100.6z M408.3,124.2
		L408.3,124.2L408.3,124.2z"/>
</g>
<g>
	<path id="_x31_3_1_" class="st19" d="M429.1,108.5v15.8h-2v-2.8c-1.6,2.1-3.7,3.1-6.2,3.1s-4.5-0.8-6.1-2.4s-2.4-3.6-2.4-5.9
		c0-2.2,0.8-4.2,2.4-5.8c1.6-1.6,3.6-2.4,6.1-2.4c2.7,0,4.7,1,6.2,3.1v-2.7H429.1z M420.9,109.9c-1.8,0-3.3,0.6-4.6,1.8
		c-1.2,1.2-1.9,2.7-1.9,4.6c0,2,0.6,3.6,1.8,4.8c1.2,1.2,2.7,1.8,4.5,1.8c1.8,0,3.4-0.6,4.6-1.9s1.8-2.8,1.8-4.6s-0.6-3.3-1.8-4.6
		C424.1,110.5,422.7,109.9,420.9,109.9z M421,105.8L421,105.8L421,105.8z M427.5,124.2L427.5,124.2L427.5,124.2z"/>
</g>
<g>
	<path id="_x31_4_1_" class="st19" d="M432.8,124.2v-15.7h2v2.3c0.5-1,1.1-1.7,1.8-2.1c0.7-0.4,1.6-0.6,2.7-0.6l0,0v2.1l0,0
		c-1.4,0.1-2.6,0.5-3.3,1.4c-0.8,0.9-1.2,2-1.2,3.4v9.2L432.8,124.2L432.8,124.2z M436,105.8L436,105.8L436,105.8z M433.8,124.2
		L433.8,124.2L433.8,124.2z"/>
</g>
<g>
	<path id="_x31_5" class="st19" d="M441.4,108.5h2v15.8h-2V108.5z M441.4,102.8h2v3.6h-2V102.8z M442.5,124.2L442.5,124.2
		L442.5,124.2z"/>
</g>
</svg>
